<?xml version="1.0" standalone="no"?>
<!DOCTYPE svg PUBLIC "-//W3C//DTD SVG 1.1//EN" "http://www.w3.org/Graphics/SVG/1.1/DTD/svg11.dtd" >
<svg xmlns="http://www.w3.org/2000/svg">
<metadata></metadata>
<defs>
<font id="corbert_condenseditalic" horiz-adv-x="1110" >
<font-face units-per-em="2048" ascent="1638" descent="-410" />
<missing-glyph horiz-adv-x="604" />
<glyph unicode="&#xfb01;" horiz-adv-x="1171" d="M174 -334l223 1267h-163l16 92h163q47 269 207 396q147 118 366 109l-10 -88q-170 0 -287 -105q-121 -103 -158 -313h644l-180 -1024h-118l164 933h-526l-224 -1267h-117z" />
<glyph unicode="&#xfb02;" horiz-adv-x="1339" d="M174 -334l223 1267h-163l16 92h163q45 255 190 386q133 119 323 122h334l-196 -1107q-12 -71 -12 -128q0 -85 28 -134q50 -85 192 -84l-10 -90q-187 -6 -268 108q-58 79 -58 210q0 58 12 126l178 1008h-179q-153 -1 -266 -108q-114 -106 -151 -310h296l-16 -91h-295 l-224 -1267h-117z" />
<glyph horiz-adv-x="2048" />
<glyph horiz-adv-x="2048" />
<glyph unicode="&#xd;" horiz-adv-x="2048" />
<glyph unicode=" "  horiz-adv-x="604" />
<glyph unicode="&#x09;" horiz-adv-x="604" />
<glyph unicode="&#xa0;" horiz-adv-x="604" />
<glyph unicode="!" horiz-adv-x="323" d="M103 54q0 26 22 48t52 22q29 0 47 -18.5t18 -44.5t-22 -48.5t-52 -22.5q-28 0 -46.5 19t-18.5 45zM159 313l195 1120h122l-200 -1120h-117z" />
<glyph unicode="&#x22;" horiz-adv-x="573" d="M255 921l92 525h104l-93 -525h-103zM540 921l93 525h103l-93 -525h-103z" />
<glyph unicode="#" horiz-adv-x="1171" d="M160 389l34 92h154l171 472h-155l34 92h154l140 389h111l-141 -389h323l140 389h110l-140 -389h170l-33 -92h-170l-170 -472h169l-33 -92h-170l-140 -389h-111l141 389h-323l-140 -389h-110l140 389h-155zM459 481h322l170 472h-322z" />
<glyph unicode="$" horiz-adv-x="1228" d="M124 176l82 83q54 -86 168.5 -133t251.5 -47q106 0 197.5 29.5t162.5 99.5t89 172q6 34 6 63q0 27 -5.5 49.5t-13.5 40.5t-24.5 33.5t-30 26.5t-39.5 22t-43.5 17.5t-51 15.5t-53.5 13.5t-60 13t-61 13.5q-67 14 -114.5 28t-100 39t-85 55.5t-54 78t-21.5 106.5 q0 36 7 74q19 110 91 193.5t170.5 128.5t217.5 60l39 197h111l-38 -193l33 -1q104 -4 199 -34t161 -82l-77 -87q-127 108 -339 108q-106 0 -198 -31t-161.5 -101t-86.5 -169q-5 -30 -5 -51q0 -43 17 -77.5t40.5 -55.5t67 -39.5t76 -28t87.5 -22.5q188 -42 247 -62 q158 -55 203 -159q22 -50 22 -115q0 -35 -8 -85q-16 -90 -67 -162t-124.5 -117.5t-158.5 -71.5t-178 -32l-38 -195h-114l39 195q-139 9 -258.5 61.5t-176.5 134.5z" />
<glyph unicode="%" horiz-adv-x="1597" d="M264 911q0 61 15 149q16 87 39 151.5t62.5 120.5t102.5 85t149 29q131 0 187 -66.5t56 -185.5q0 -63 -15 -151q-15 -87 -39 -152.5t-64 -121t-103 -84.5t-147 -29q-243 0 -243 255zM318 -35l1089 1503h121l-1088 -1503h-122zM360 901q0 -84 34.5 -125.5t113.5 -41.5 q110 0 168 81t87 245q16 86 16 143q0 83 -34.5 124t-113.5 41q-112 0 -169.5 -80.5t-86.5 -244.5q-15 -81 -15 -142zM976 243q0 61 15 149q16 87 39 151t62.5 120t103 85t148.5 29q131 0 187 -66.5t56 -185.5q0 -56 -16 -150q-12 -69 -29 -123.5t-45 -105.5t-65 -84.5 t-91 -53.5t-122 -20q-243 0 -243 255zM1072 233q0 -84 34.5 -126t113.5 -42q110 0 168 81.5t87 245.5q16 86 16 143q0 83 -34.5 124t-113.5 41q-112 0 -169.5 -80.5t-86.5 -244.5q-15 -90 -15 -142z" />
<glyph unicode="&#x26;" horiz-adv-x="1269" d="M150 279q0 46 9 100q41 238 238 343l156 70l-98 150q-34 59 -34 131q0 38 7 80q16 88 54 149.5t95.5 94t122 46.5t146.5 14q73 0 129.5 -11.5t103 -37.5t71.5 -74.5t25 -116.5q0 -35 -8 -81q-17 -97 -60 -159t-118 -101l-274 -123l344 -522q52 67 71 174q8 46 8 79 q0 79 -37 128l53 48q63 -80 63 -198q0 -40 -10 -100q-24 -136 -95 -225l70 -107l-4 -30h-112l-46 67q-133 -112 -399 -112q-104 0 -185 15.5t-147.5 51t-102.5 100.5t-36 157zM263 284q0 -126 89 -178.5t260 -52.5q244 0 352 103l-353 551l-158 -72q-148 -76 -183 -273 q-7 -39 -7 -78zM540 1070q0 -50 19 -79l102 -155l268 122q94 48 120 188q7 42 7 64q0 85 -53 117t-160 32q-130 0 -201.5 -46.5t-94.5 -172.5q-7 -36 -7 -70z" />
<glyph unicode="'" horiz-adv-x="288" d="M255 921l92 525h104l-93 -525h-103z" />
<glyph unicode="(" horiz-adv-x="620" d="M147 136q0 180 45 432q23 129 48 232t60 205t80 178.5t102 139t132 99t165 47.5l-7 -97q-95 -15 -171 -80.5t-131.5 -177.5t-95.5 -248.5t-71 -314.5q-44 -253 -44 -412q0 -174 52 -273.5t168 -119.5l-14 -96q-170 21 -244 146t-74 340z" />
<glyph unicode=")" horiz-adv-x="620" d="M38 -350l7 96q76 12 140.5 58.5t113.5 118t90 173.5t70.5 216.5t54.5 255.5q44 251 44 410q0 357 -220 394l15 97q170 -21 243.5 -145.5t73.5 -340.5q0 -180 -45 -432q-23 -129 -48 -232t-60 -205t-80 -178.5t-102 -139t-132 -99t-165 -47.5z" />
<glyph unicode="*" horiz-adv-x="614" d="M315 1266l38 83l140 -58l30 178h89l-34 -178l159 58l8 -83l-163 -55l71 -147l-76 -57l-63 144l-115 -144l-61 57l121 147z" />
<glyph unicode="+" horiz-adv-x="917" d="M189 550l18 98h316l64 364h101l-64 -364h316l-18 -98h-316l-64 -364h-101l64 364h-316z" />
<glyph unicode="," horiz-adv-x="327" d="M90 -141l16 53h12q17 0 27.5 16t18.5 54l1 6h-5q-28 0 -43.5 17t-15.5 41t19 44.5t51 20.5q38 0 53 -28q13 -22 13 -57q0 -19 -5 -46q-10 -59 -34.5 -90t-78.5 -31h-29z" />
<glyph unicode="-" horiz-adv-x="860" d="M209 660l17 99h675l-17 -99h-675z" />
<glyph unicode="." horiz-adv-x="317" d="M102 49q0 24 19 45t51 21q30 0 46 -17t16 -41q0 -25 -19 -46t-51 -21q-30 0 -46 17t-16 42z" />
<glyph unicode="/" horiz-adv-x="874" d="M85 -35l837 1503h121l-837 -1503h-121z" />
<glyph unicode="0" horiz-adv-x="1280" d="M219 422q0 121 27 278q22 127 52 226.5t80.5 192.5t117 153.5t164.5 97t221 36.5q118 0 202 -31.5t131.5 -92t69 -138.5t21.5 -181q0 -124 -28 -280q-23 -128 -53.5 -229t-81.5 -194t-118 -154t-164 -97t-218 -36q-117 0 -200.5 32t-131.5 93t-69.5 140.5t-21.5 183.5z M337 416q0 -170 71.5 -257t236.5 -87q93 0 168 29t129.5 80.5t96.5 131.5t70 173t49 214q29 161 29 269q0 168 -71.5 253.5t-237.5 85.5q-95 0 -170.5 -29t-130 -80.5t-96 -131.5t-68.5 -172t-48 -212q-28 -154 -28 -267z" />
<glyph unicode="1" horiz-adv-x="632" d="M287 1218l18 103l290 72h89l-246 -1393h-121l226 1281z" />
<glyph unicode="2" horiz-adv-x="1148" d="M107 0l56 317q20 112 68.5 192.5t124 128.5t166 72.5t209.5 32.5q89 6 149.5 20.5t111 47t80.5 89t45 142.5q7 38 7 74q0 112 -77 153.5t-231 41.5q-87 0 -152 -12.5t-119.5 -42.5t-89.5 -84t-50 -132h-115q19 108 65 181.5t117.5 113.5t154.5 56.5t193 16.5 q98 0 170.5 -13t131 -44t88.5 -87.5t30 -138.5q0 -43 -9 -97q-15 -88 -45.5 -151.5t-71 -105t-100.5 -67.5t-124 -38.5t-153 -18.5q-102 -7 -176 -26t-133.5 -57.5t-96 -101t-52.5 -153.5l-37 -207h820l-18 -102h-937z" />
<glyph unicode="3" horiz-adv-x="1161" d="M146 274q0 42 7 84h114q-6 -40 -6 -74q0 -63 21.5 -105.5t65 -65.5t98 -32.5t132.5 -9.5q91 0 158 13.5t124.5 47t94 95t52.5 152.5q8 48 8 83q0 50 -15 87t-41 60t-67 37t-88 19t-109 5h-199l16 95h193q82 0 142 12.5t112 42.5t84.5 86t47.5 139q8 45 8 74 q0 56 -19.5 94t-59 58.5t-89.5 28.5t-120 8q-81 0 -142 -12t-112.5 -40.5t-85 -80t-49.5 -126.5h-116q20 104 66.5 175.5t115.5 110.5t147.5 55t178.5 16q91 0 161 -13t127 -43t87.5 -86t30.5 -136q0 -40 -9 -90q-25 -139 -97 -215t-195 -109q213 -52 213 -264q0 -45 -9 -99 q-16 -90 -52.5 -157t-85.5 -109t-116.5 -67.5t-137 -35t-155.5 -9.5q-98 0 -172.5 14.5t-134.5 48t-91.5 93.5t-31.5 145z" />
<glyph unicode="4" horiz-adv-x="1181" d="M144 320l17 103l901 972h120l-172 -977h154l-18 -98h-153l-57 -320h-120l57 320h-729zM292 418h598l142 801z" />
<glyph unicode="5" horiz-adv-x="1140" d="M162 295q0 48 7 96h124q-7 -43 -7 -86q0 -132 74.5 -183t221.5 -51q87 0 151.5 15.5t121 54.5t94 110.5t55.5 176.5q11 64 11 109q0 131 -75 180.5t-224 48.5h-431l110 627h827l-18 -98h-705l-75 -430h298q74 0 133.5 -9t112.5 -32t89 -59.5t57 -94t21 -132.5 q0 -51 -13 -127q-23 -129 -73.5 -217.5t-125.5 -135.5t-157.5 -66t-189.5 -19q-75 0 -135.5 9.5t-113.5 32.5t-88.5 59t-56 92t-20.5 129z" />
<glyph unicode="6" horiz-adv-x="1206" d="M214 392q0 121 32 308q16 92 33.5 164t44 148t58.5 132.5t78 107.5t101.5 83.5t130 51.5t163.5 19q195 0 296 -88t121 -242l-116 -24q-17 132 -86.5 194t-217.5 62q-92 0 -163.5 -27t-120.5 -73.5t-86.5 -122t-61 -157.5t-44.5 -195l-11 -50q54 93 142 137t209 52 q44 2 68 2q90 0 159.5 -16t126 -53t86.5 -103.5t30 -159.5q0 -58 -12 -128q-18 -105 -56.5 -183t-88.5 -127t-118 -78.5t-138.5 -41t-156.5 -11.5q-113 0 -192.5 29.5t-124.5 87t-65 131t-20 171.5zM330 384q0 -154 66.5 -233t224.5 -79q91 0 158 16t126 55t97.5 111.5 t57.5 180.5q11 64 11 111q0 70 -21.5 117.5t-64.5 73t-96.5 35.5t-128.5 10q-169 0 -273 -63t-151 -225q-6 -58 -6 -110z" />
<glyph unicode="7" horiz-adv-x="1097" d="M208 0l883 1296h-770l17 99h912l-11 -68l-897 -1327h-134z" />
<glyph unicode="8" horiz-adv-x="1267" d="M180 278q0 43 9 94q27 153 112 236t228 118q-194 54 -194 243q0 36 8 86q15 82 49.5 144t82.5 101t113.5 63t134 33.5t152.5 9.5q76 0 137 -8t116 -27.5t92.5 -50.5t59 -80.5t21.5 -114.5q0 -46 -8 -87q-24 -137 -98 -211.5t-199 -108.5q220 -54 220 -267q0 -43 -9 -96 q-16 -91 -54 -159t-89 -110t-121 -68t-143 -35.5t-163 -9.5q-103 0 -182.5 15t-143 48.5t-97.5 94.5t-34 147zM308 283q0 -120 83 -165.5t249 -45.5q75 0 133 8t111.5 28.5t91.5 55t65.5 88t40.5 126.5q8 46 8 79q0 50 -15.5 87t-42.5 60.5t-69.5 37.5t-91 19.5t-112.5 5.5 q-95 0 -165 -14t-129.5 -47.5t-96.5 -94.5t-53 -150q-7 -39 -7 -78zM459 957q0 -109 76 -150.5t227 -41.5q69 0 122 7.5t102 26t83.5 50t59.5 80.5t37 116q7 38 7 72q0 110 -75 150.5t-226 40.5q-87 0 -151.5 -13t-118.5 -43.5t-88 -86.5t-48 -137q-7 -36 -7 -71z" />
<glyph unicode="9" horiz-adv-x="1206" d="M177 304l117 24q17 -132 86.5 -194t217.5 -62q92 0 163.5 27t120 73t86 121.5t61 156.5t44.5 195l12 52q-101 -172 -348 -189q-22 -2 -68 -2q-91 0 -161.5 16t-127 52.5t-87 103t-30.5 159.5q0 53 13 129q18 105 56.5 183t88.5 126.5t118 78.5t138 41t156 11 q113 0 192.5 -29.5t124.5 -87t65 -131t20 -171.5q0 -120 -32 -307q-16 -92 -33.5 -164t-44 -148t-58 -132.5t-77.5 -108t-102 -84t-130 -51.5t-163 -19q-195 0 -296.5 88.5t-121.5 242.5zM379 834q0 -135 78 -186t232 -51q169 0 273 63.5t151 225.5q6 59 6 110 q0 155 -66 233.5t-224 78.5q-91 0 -158.5 -16t-126 -55.5t-97.5 -112t-58 -180.5q-10 -59 -10 -110z" />
<glyph unicode=":" horiz-adv-x="317" d="M103 49q0 25 18.5 45.5t50.5 20.5q30 0 46.5 -17t16.5 -41q0 -25 -19 -46t-51 -21q-30 0 -46 17t-16 42zM256 923q0 24 19 44.5t51 20.5q30 0 46 -17t16 -41t-19 -44.5t-51 -20.5q-30 0 -46 17t-16 41z" />
<glyph unicode=";" horiz-adv-x="327" d="M91 -139l16 53h12q32 0 46 70l1 6h-5q-28 0 -43.5 17t-15.5 41t19 44.5t51 20.5q38 0 53 -29q13 -22 13 -56q0 -18 -5 -46q-10 -59 -34.5 -90t-78.5 -31h-29zM256 923q0 24 19 44.5t51 20.5q30 0 46 -17t16 -41t-19 -44.5t-51 -20.5q-30 0 -46 17t-16 41z" />
<glyph unicode="&#x3c;" horiz-adv-x="880" d="M94 3l20 120l657 419l-508 420l19 120l611 -479l-21 -122z" />
<glyph unicode="=" horiz-adv-x="917" d="M152 341l18 98h733l-18 -98h-733zM222 738l18 98h733l-18 -98h-733z" />
<glyph unicode="&#x3e;" horiz-adv-x="880" d="M178 481l20 122l779 479l-20 -120l-657 -420l508 -419l-19 -120z" />
<glyph unicode="?" horiz-adv-x="1130" d="M286 1097q15 85 49.5 149t81.5 104t112 64.5t133 34t152 9.5q76 0 137 -8t116 -27.5t91.5 -51.5t58 -82.5t21.5 -116.5q0 -48 -8 -92q-9 -51 -23 -95t-29 -77t-37 -61.5t-40.5 -48t-46.5 -37t-46.5 -27.5t-50 -21t-48.5 -16t-48 -13q-34 -8 -54 -13.5t-49.5 -17 t-47.5 -26t-37.5 -36t-32.5 -53t-20 -71.5l-27 -154h-122l36 203q13 72 38.5 120t74 77t79 40t99.5 29q12 3 18 5q48 11 77 20.5t69 32t65 53.5t49 84t36 124q6 31 6 70q0 56 -20.5 94t-62.5 58.5t-94.5 28.5t-127.5 8q-86 0 -150.5 -12.5t-118.5 -41.5t-88 -81.5 t-49 -128.5zM417 54q0 26 22 48t52 22q29 0 47 -18.5t18 -44.5t-22 -48.5t-52 -22.5q-28 0 -46.5 19t-18.5 45z" />
<glyph unicode="@" horiz-adv-x="1841" d="M160 272q0 115 22 237q36 205 122 379t211.5 301t294 198.5t360.5 71.5q328 0 509.5 -196t181.5 -522q0 -109 -21 -227q-37 -206 -170.5 -330t-312.5 -124h-239l20 105q-75 -75 -139 -100t-132 -25q-136 0 -211 83.5t-75 233.5q0 61 11 122q32 183 160 299t296 116 q113 0 196 -58l12 48h100l-126 -715h148q122 0 217.5 99t125.5 263q20 112 20 209q0 281 -151 445.5t-425 164.5q-221 0 -403 -109.5t-299.5 -302.5t-162.5 -446q-20 -110 -20 -219q0 -289 149 -457t421 -168q107 0 239 33l15 -107q-125 -37 -259 -37q-217 0 -373 93.5 t-234 258t-78 383.5zM680 355q0 -113 52.5 -174.5t154.5 -61.5q65 0 124 30.5t135 122.5l88 475q-57 67 -168 67q-140 0 -244.5 -98.5t-131.5 -253.5q-10 -54 -10 -107z" />
<glyph unicode="A" horiz-adv-x="1339" d="M86 0l772 1434h127l266 -1434h-124l-72 396h-629l-212 -396h-128zM477 498h563l-143 782z" />
<glyph unicode="B" horiz-adv-x="1286" d="M200 0l253 1434h562q136 0 210.5 -77t74.5 -207q0 -38 -8 -86q-20 -114 -79.5 -197t-154.5 -124q84 -27 129 -97.5t45 -173.5q0 -44 -9 -94q-30 -172 -141 -275t-279 -103h-603zM339 100h460q117 0 196 79t103 217q7 39 7 80q0 101 -51.5 156.5t-148.5 55.5h-462z M461 789h450q101 6 169.5 78.5t90.5 195.5q7 36 7 75q0 93 -48.5 145t-137.5 52h-435z" />
<glyph unicode="C" horiz-adv-x="1267" d="M255 541q0 86 17 185q37 211 138 375t261 260.5t356 96.5q215 0 352 -122l-88 -79q-98 98 -268 98q-241 0 -411.5 -177.5t-221.5 -468.5q-16 -87 -16 -170q0 -213 107 -335.5t304 -122.5q173 0 312 104l66 -92q-168 -116 -383 -116q-253 0 -389 154t-136 410z" />
<glyph unicode="D" horiz-adv-x="1384" d="M200 0l253 1434h401q253 0 390.5 -146.5t137.5 -398.5q0 -83 -17 -180q-57 -324 -257.5 -516.5t-499.5 -192.5h-408zM340 103h279q244 0 410.5 166t217.5 457q15 88 15 165q0 208 -108 324t-311 116h-287z" />
<glyph unicode="E" d="M200 0l253 1434h794l-18 -103h-673l-95 -541h616l-18 -102h-616l-103 -586h672l-18 -102h-794z" />
<glyph unicode="F" horiz-adv-x="1079" d="M200 0l253 1434h764l-18 -103h-643l-99 -564h586l-18 -102h-586l-117 -665h-122z" />
<glyph unicode="G" horiz-adv-x="1464" d="M255 542q0 85 17 184q37 211 138 375t261 260.5t356 96.5q152 0 264.5 -58.5t176.5 -162.5l-78 -69q-126 187 -366 187q-238 0 -410.5 -177t-223.5 -469q-16 -87 -16 -170q0 -214 107.5 -337.5t302.5 -123.5q249 0 424 189l73 403h-393l17 98h513l-94 -540 q-101 -120 -240 -186.5t-304 -66.5q-250 0 -387.5 155t-137.5 412z" />
<glyph unicode="H" horiz-adv-x="1402" d="M200 0l253 1434h121l-117 -666h759l117 666h122l-253 -1434h-121l117 666h-759l-117 -666h-122z" />
<glyph unicode="I" horiz-adv-x="522" d="M200 0l253 1434h121l-252 -1434h-122z" />
<glyph unicode="J" horiz-adv-x="946" d="M94 24l31 84q72 -21 149 -21q198 0 302.5 118t146.5 354l155 875h121l-156 -883q-23 -131 -62 -229t-103 -175.5t-162 -118t-228 -40.5q-112 0 -194 36z" />
<glyph unicode="K" horiz-adv-x="1200" d="M200 0l253 1434h120l-150 -842l752 842h146l-575 -641l366 -793h-142l-314 689l-265 -294l-71 -395h-120z" />
<glyph unicode="L" horiz-adv-x="1058" d="M200 0l253 1434h121l-235 -1336h649l-17 -98h-771z" />
<glyph unicode="M" horiz-adv-x="1636" d="M182 0l253 1434h145l260 -1247l703 1247h147l-253 -1434h-121l211 1192l-663 -1192h-107l-242 1192l-211 -1192h-122z" />
<glyph unicode="N" horiz-adv-x="1359" d="M182 0l253 1434h131l528 -1212l215 1212h121l-253 -1434h-131l-528 1210l-214 -1210h-122z" />
<glyph unicode="O" horiz-adv-x="1556" d="M255 542q0 85 17 184q37 211 138 375t261 260.5t356 96.5q254 0 391 -154.5t137 -410.5q0 -85 -17 -184q-38 -213 -138.5 -377.5t-261.5 -260.5t-358 -96q-250 0 -387.5 155t-137.5 412zM374 540q0 -214 107.5 -337.5t302.5 -123.5q244 0 413.5 176.5t221.5 470.5 q16 87 16 170q0 213 -107 336t-305 123q-241 0 -411.5 -177.5t-221.5 -468.5q-16 -87 -16 -169z" />
<glyph unicode="P" horiz-adv-x="1284" d="M200 0l253 1434h518q170 0 262 -98.5t92 -265.5q0 -53 -11 -117q-38 -211 -170.5 -337.5t-332.5 -126.5h-403l-86 -489h-122zM426 590h389q148 0 248 99.5t131 273.5q10 58 10 100q0 127 -66.5 198.5t-190.5 71.5h-390z" />
<glyph unicode="Q" horiz-adv-x="1572" d="M255 542q0 85 17 184q37 211 138 375t261 260.5t356 96.5q254 0 391 -154.5t137 -410.5q0 -85 -17 -184q-53 -297 -223 -488l123 -173l-87 -87l-125 180q-186 -166 -446 -166q-250 0 -387.5 155t-137.5 412zM374 540q0 -214 107.5 -337.5t302.5 -123.5q244 0 413.5 176.5 t221.5 470.5q16 87 16 170q0 213 -107 336t-305 123q-241 0 -411.5 -177.5t-221.5 -468.5q-16 -87 -16 -169z" />
<glyph unicode="R" horiz-adv-x="1300" d="M200 0l253 1434h517q161 0 248.5 -93.5t87.5 -252.5q0 -56 -10 -110q-30 -174 -130 -287.5t-255 -140.5l255 -550h-136l-243 538h-370l-95 -538h-122zM434 639h388q139 0 232.5 93t122.5 256q8 44 8 93q0 119 -62 185.5t-177 66.5h-390z" />
<glyph unicode="S" horiz-adv-x="1259" d="M132 176l81 83q54 -86 169 -133t252 -47q106 0 197.5 29.5t162.5 99.5t89 172q6 34 6 63q0 27 -5.5 49.5t-13.5 40.5t-24.5 33.5t-30 26.5t-39.5 22t-44 17.5t-51.5 15.5t-53.5 13.5t-59.5 13t-61.5 13.5q-67 14 -114.5 28t-100 39t-84.5 55.5t-53.5 78t-21.5 106.5 q0 36 7 74q17 96 73.5 172.5t138 123t176 70.5t194.5 24q116 0 222 -32t179 -89l-76 -87q-127 108 -339 108q-78 0 -151 -18.5t-135 -54.5t-105 -94.5t-56 -133.5q-4 -24 -4 -51q0 -43 17 -77.5t40.5 -55.5t66.5 -39.5t75.5 -28t87.5 -22.5q188 -42 246 -62 q159 -54 205 -158q22 -50 22 -116q0 -35 -8 -85q-17 -97 -74 -173t-138.5 -122t-175.5 -69.5t-192 -23.5q-155 0 -293 54.5t-203 146.5z" />
<glyph unicode="T" horiz-adv-x="1224" d="M322 1331l18 103h1050l-19 -103h-463l-235 -1331h-122l235 1331h-464z" />
<glyph unicode="U" horiz-adv-x="1392" d="M283 369q0 100 23 232l147 833h121l-148 -842q-23 -133 -23 -224q0 -155 72 -223t237 -68q111 0 191.5 30t137.5 95.5t93 161.5t61 237l147 833h121l-148 -842q-27 -156 -70 -266t-113.5 -192t-175 -121.5t-248.5 -39.5q-226 0 -325.5 98.5t-99.5 297.5z" />
<glyph unicode="V" horiz-adv-x="1312" d="M341 1434h124l218 -1272l669 1272h128l-762 -1434h-121z" />
<glyph unicode="W" horiz-adv-x="1980" d="M341 1434h130l142 -1221l564 1220h130l131 -1220l575 1221h133l-684 -1434h-124l-134 1207l-560 -1207h-124z" />
<glyph unicode="X" horiz-adv-x="1245" d="M86 0l590 737l-305 697h133l264 -604l476 604h139l-555 -702l329 -732h-133l-287 641l-513 -641h-138z" />
<glyph unicode="Y" horiz-adv-x="1265" d="M341 1434h134l278 -737l540 737h139l-636 -861l-103 -573h-121l102 573z" />
<glyph unicode="Z" horiz-adv-x="1181" d="M100 0l11 69l1033 1262h-747l18 103h906l-11 -70l-1033 -1262h823l-18 -102h-982z" />
<glyph unicode="[" horiz-adv-x="550" d="M33 -334l318 1802h366l-16 -91h-252l-286 -1621h252l-16 -90h-366z" />
<glyph unicode="\" horiz-adv-x="874" d="M352 1468h117l307 -1503h-117z" />
<glyph unicode="]" horiz-adv-x="550" d="M33 -334l16 90h253l285 1621h-252l16 91h366l-318 -1802h-366z" />
<glyph unicode="^" horiz-adv-x="1042" d="M230 789l481 638h120l256 -638h-129l-203 522l-390 -522h-135z" />
<glyph unicode="_" horiz-adv-x="1019" d="M37 -313l17 98h836l-17 -98h-836z" />
<glyph unicode="`" horiz-adv-x="534" d="M339 1423l68 70l250 -274l-67 -71z" />
<glyph unicode="a" horiz-adv-x="1138" d="M199 371q0 69 14 151q44 249 171 389t326 140q88 0 155.5 -36.5t156.5 -138.5l31 148h108l-180 -1024h-108l24 135q-146 -160 -345 -160q-170 0 -261.5 105.5t-91.5 290.5zM315 374q0 -143 67 -223.5t199 -80.5q187 0 326 190l95 514q-85 113 -141 147.5t-131 34.5 q-165 0 -265 -117.5t-138 -333.5q-12 -71 -12 -131z" />
<glyph unicode="b" horiz-adv-x="1155" d="M174 0l267 1511h118l-113 -623q122 98 198.5 130.5t157.5 32.5q167 0 252 -98.5t85 -279.5q0 -86 -15 -168q-42 -243 -179.5 -386.5t-336.5 -143.5q-203 0 -296 166l-30 -141h-108zM335 252q71 -182 250 -182q166 0 277 123.5t147 328.5q15 84 15 155q0 279 -248 279 q-78 0 -149 -37.5t-198 -152.5z" />
<glyph unicode="c" horiz-adv-x="964" d="M201 393q0 67 11 128q20 111 68 207t119 168t167.5 113.5t206.5 41.5q82 0 148.5 -22.5t102.5 -55.5l-75 -73q-48 56 -172 56q-169 0 -292 -126t-158 -326q-10 -57 -10 -113q0 -150 77 -236.5t212 -86.5q52 0 110 17t101 50l56 -85q-54 -36 -131 -56.5t-145 -20.5 q-188 0 -292 115.5t-104 304.5z" />
<glyph unicode="d" horiz-adv-x="1155" d="M199 371q0 69 14 151q44 249 171 389t326 140q84 0 151 -34.5t155 -133.5l113 628h118l-266 -1511h-108l24 135q-146 -160 -345 -160q-170 0 -261.5 105.5t-91.5 290.5zM315 374q0 -143 67 -223.5t199 -80.5q187 0 326 190l95 514q-85 113 -141 147.5t-131 34.5 q-165 0 -265 -117.5t-138 -333.5q-12 -71 -12 -131z" />
<glyph unicode="e" d="M201 389q0 65 12 135q41 232 185 380.5t359 148.5q114 0 198.5 -34.5t129.5 -97.5q50 -67 50 -164q0 -51 -13 -104q-64 -257 -485 -257q-117 0 -320 27q-1 -16 -1 -45q0 -149 75 -230.5t213 -81.5q157 0 307 90l41 -75q-158 -106 -359 -106q-189 0 -290.5 113t-101.5 301 zM326 498q136 -30 283 -30q352 0 403 207q12 48 12 87q0 103 -73 153.5t-197 50.5q-161 0 -270.5 -114.5t-145.5 -299.5z" />
<glyph unicode="f" horiz-adv-x="718" d="M174 -334l223 1267h-163l16 92h162q47 266 203 394q137 112 335 112q18 0 36 -1l-10 -88h-3q-168 0 -286 -107q-121 -105 -157 -311h296l-16 -91h-295l-224 -1267h-117z" />
<glyph unicode="g" horiz-adv-x="1179" d="M181 -414l38 74q54 -41 125.5 -66.5t143.5 -25.5q125 0 231.5 78t131.5 217l51 272q-145 -155 -336 -155q-170 0 -262 105.5t-92 289.5q0 68 14 150q44 248 170.5 387t325.5 139q88 0 156 -36.5t157 -138.5l31 148h107l-205 -1167q-21 -120 -96 -207.5t-170 -127.5 t-197 -40q-90 0 -175 28.5t-149 75.5zM328 375q0 -142 67 -222.5t199 -80.5q187 0 326 190l94 512q-85 112 -141 147t-131 35q-165 0 -264.5 -117.5t-137.5 -332.5q-12 -69 -12 -131z" />
<glyph unicode="h" horiz-adv-x="1175" d="M192 0l267 1511h118l-113 -626q109 89 186.5 128t167.5 39q63 0 121 -20t104 -57.5t73.5 -97t27.5 -133.5q0 -38 -7 -76l-118 -668h-118l119 671q5 26 5 60q0 107 -68 166t-165 59q-84 0 -157 -43t-188 -146l-137 -767h-118z" />
<glyph unicode="i" horiz-adv-x="487" d="M193 0l181 1024h118l-181 -1024h-118zM421 1330q0 24 19 45t51 21q30 0 46 -17t16 -41t-19 -45t-51 -21q-30 0 -46 17t-16 41z" />
<glyph unicode="j" horiz-adv-x="456" d="M-238 -524l11 90q156 18 259 135q95 104 122 264l187 1059h118l-188 -1067q-40 -224 -176 -346q-131 -123 -333 -135zM385 1328q0 26 22 48.5t52 22.5q28 0 46.5 -19t18.5 -45t-22 -48t-52 -22q-29 0 -47 18.5t-18 44.5z" />
<glyph unicode="k" horiz-adv-x="1019" d="M192 0l267 1510h117l-178 -1003l546 517h134l-419 -406l285 -618h-132l-238 525l-203 -188l-61 -337h-118z" />
<glyph unicode="l" horiz-adv-x="659" d="M257 305q0 60 12 129l190 1077h118l-192 -1085q-13 -78 -13 -130q0 -82 31 -134q52 -82 187 -82h3l-10 -90h-18q-177 0 -254 111q-54 78 -54 204z" />
<glyph unicode="m" horiz-adv-x="1744" d="M174 0l181 1024h107l-25 -139q100 89 173 128t157 39q92 0 167.5 -47.5t104.5 -130.5q115 101 195.5 139.5t173.5 38.5q80 0 148 -33.5t112.5 -104t44.5 -166.5q0 -35 -8 -80l-118 -668h-117l119 676q6 34 6 64q0 102 -60 158.5t-146 56.5q-81 0 -151 -36.5t-178 -139.5 q3 -23 3 -49q0 -35 -7 -73l-116 -657h-117l119 676q6 33 6 64q0 103 -60 159t-146 56q-75 0 -140.5 -40.5t-170.5 -139.5l-139 -775h-118z" />
<glyph unicode="n" horiz-adv-x="1165" d="M174 0l181 1024h107l-25 -143q110 91 190 131t173 40q136 0 234 -82t98 -227q0 -44 -6 -75l-118 -668h-118l116 655q6 36 6 67q0 113 -69 173.5t-169 60.5q-83 0 -154 -40t-189 -143l-139 -773h-118z" />
<glyph unicode="o" horiz-adv-x="1189" d="M200 389q0 62 12 131q20 113 68 209.5t118.5 168.5t167 112.5t207.5 40.5q191 0 293.5 -111.5t102.5 -301.5q0 -64 -12 -135q-42 -237 -190 -383.5t-370 -146.5q-192 0 -294.5 114t-102.5 302zM316 386q0 -148 74 -233t209 -85q170 0 288.5 122.5t154.5 329.5 q12 65 12 122q0 148 -74.5 231t-209.5 83q-167 0 -287 -124t-156 -328q-11 -66 -11 -118z" />
<glyph unicode="p" horiz-adv-x="1173" d="M107 -487l266 1511h107l-24 -135q146 160 345 160q172 0 263 -104.5t91 -289.5q0 -77 -14 -153q-44 -249 -171 -389t-326 -140q-84 0 -151 34.5t-155 133.5l-114 -628h-117zM352 250q85 -113 141 -147.5t131 -34.5q165 0 264.5 117.5t137.5 333.5q13 76 13 131 q0 143 -67 223.5t-199 80.5q-188 0 -327 -190z" />
<glyph unicode="q" horiz-adv-x="1155" d="M196 351q0 80 16 167q43 245 178.5 388t336.5 143q89 0 168 -38.5t129 -127.5l29 141h108l-266 -1511h-118l113 623q-122 -98 -198.5 -130.5t-157.5 -32.5q-167 0 -252.5 99t-85.5 279zM312 347q0 -279 247 -279q78 0 150 37.5t198 152.5l94 514q-71 182 -250 182 q-166 0 -277 -123.5t-147 -328.5q-15 -84 -15 -155z" />
<glyph unicode="r" horiz-adv-x="684" d="M174 0l181 1024h107l-28 -162q79 92 172.5 140t188.5 49h24l-19 -97h-28q-87 0 -176.5 -52.5t-170.5 -160.5l-133 -741h-118z" />
<glyph unicode="s" horiz-adv-x="929" d="M103 126l48 75q38 -57 125.5 -93.5t187.5 -36.5q116 0 202.5 54t105.5 157q4 20 4 42q0 52 -34.5 85.5t-68 44.5t-112.5 29q-19 5 -29 7q-57 13 -90.5 22t-75.5 27t-64.5 39t-38.5 55t-16 78q0 66 24.5 122.5t66 95t96.5 66t115 40t123 12.5q87 0 165.5 -24.5 t131.5 -68.5l-42 -77q-47 38 -117 59t-142 21q-79 0 -146.5 -25.5t-112.5 -81.5t-45 -132q0 -65 44.5 -94.5t135.5 -50.5q151 -32 199 -50q117 -44 140 -138q7 -27 7 -58q0 -30 -6 -66q-16 -92 -83 -157t-153 -93.5t-182 -28.5q-114 0 -215 39t-148 105z" />
<glyph unicode="t" horiz-adv-x="745" d="M213 933l16 91h180l53 299h118l-53 -299h270l-16 -91h-270l-90 -513q-10 -60 -10 -99q0 -85 34 -140q55 -87 187 -102l-10 -91q-181 9 -265 126q-62 82 -62 211q0 48 9 104l89 504h-180z" />
<glyph unicode="u" horiz-adv-x="1146" d="M212 281q0 39 7 75l118 668h118l-116 -655q-6 -36 -6 -67q0 -113 69 -173.5t169 -60.5q83 0 154 40t189 143l139 773h117l-180 -1024h-107l25 142q-110 -91 -190 -131t-173 -40q-136 0 -234.5 82.5t-98.5 227.5z" />
<glyph unicode="v" horiz-adv-x="946" d="M233 1024h117l147 -880l459 880h121l-540 -1024h-125z" />
<glyph unicode="w" horiz-adv-x="1478" d="M233 1024h117l116 -855l397 855h112l95 -855l418 855h121l-505 -1024h-125l-93 819l-385 -819h-124z" />
<glyph unicode="x" horiz-adv-x="911" d="M50 0l429 515l-233 509h122l195 -418l338 418h128l-410 -512l240 -512h-122l-201 427l-359 -427h-127z" />
<glyph unicode="y" horiz-adv-x="1001" d="M-8 -508l10 90q126 0 224 66q98 59 169 192l85 160h-18l-185 1024h118l153 -883l462 883h121l-647 -1227q-81 -155 -207 -235q-120 -70 -285 -70z" />
<glyph unicode="z" horiz-adv-x="880" d="M85 0l8 52l703 881h-519l16 91h670l-8 -51l-706 -882h559l-16 -91h-707z" />
<glyph unicode="{" horiz-adv-x="712" d="M185 503l11 97q67 6 112 53t58 119l46 260q35 199 158.5 307t301.5 124l-7 -89q-132 -17 -223.5 -108t-117.5 -242l-46 -259q-27 -154 -166 -217q44 -23 69 -67t25 -102q0 -25 -4 -48l-46 -259q-8 -41 -8 -88q0 -111 58 -175t163 -79l-13 -90q-147 14 -234.5 99 t-87.5 238q0 41 10 103l46 259q4 21 4 44q0 111 -109 120z" />
<glyph unicode="|" horiz-adv-x="305" d="M40 -295l323 1831h122l-323 -1831h-122z" />
<glyph unicode="}" horiz-adv-x="712" d="M35 -360l7 90q132 18 223.5 108.5t117.5 241.5l46 259q27 154 166 217q-44 23 -69 67t-25 102q0 25 4 48l46 259q8 43 8 89q0 111 -57.5 174.5t-163.5 78.5l13 90q147 -13 234 -99t87 -238q0 -49 -9 -103l-46 -259q-4 -21 -4 -44q0 -111 109 -120l-11 -97 q-66 -6 -111.5 -53.5t-58.5 -119.5l-46 -259q-35 -199 -158.5 -307.5t-301.5 -124.5z" />
<glyph unicode="~" horiz-adv-x="983" d="M187 545q110 177 245 177q86 0 203 -91q83 -61 153 -61q99 0 153 116l64 -49q-38 -71 -93 -109t-116 -38q-86 0 -178 71q-103 78 -179 78q-105 0 -190 -145z" />
<glyph unicode="&#xa1;" horiz-adv-x="323" d="M36 -369l200 1120h117l-195 -1120h-122zM270 1004q0 26 22 48t52 22q29 0 47 -18.5t18 -44.5t-22 -48t-52 -22q-29 0 -47 18.5t-18 44.5z" />
<glyph unicode="&#xa2;" horiz-adv-x="925" d="M172 393q0 61 12 127q36 204 161 347.5t310 172.5l33 169h108l-33 -162l21 -1q68 -5 124 -25.5t88 -47.5l-74 -78q-48 61 -174 61q-169 0 -291.5 -126t-157.5 -326q-11 -63 -11 -113q0 -150 77.5 -236.5t212.5 -86.5q53 0 111.5 18.5t103.5 54.5l51 -91 q-47 -30 -113.5 -49t-127.5 -24l-21 -2l-31 -159h-109l35 172q-145 24 -225 132.5t-80 272.5z" />
<glyph unicode="&#xa3;" horiz-adv-x="1157" d="M92 0l15 102q196 209 238 363q21 70 18 171h-158l18 102h140q-8 90 -8 148q0 84 15 170q78 404 493 404q181 0 278.5 -65.5t97.5 -219.5q0 -44 -7 -87h-116q6 38 6 70q0 110 -65.5 153.5t-194.5 43.5q-310 0 -372 -326q-13 -71 -13 -149q0 -52 8 -142h482l-18 -103h-461 q4 -103 -13 -174q-33 -153 -209 -359h817l-18 -102h-973z" />
<glyph unicode="&#xa4;" horiz-adv-x="1679" />
<glyph unicode="&#xa5;" horiz-adv-x="1275" d="M346 1434h134l278 -737l541 737h138l-492 -668h167l-16 -91h-216l-83 -120l-23 -125h279l-16 -91h-279l-60 -339h-121l60 339h-279l16 91h279l22 125l-41 120h-217l16 91h171z" />
<glyph unicode="&#xa6;" horiz-adv-x="307" d="M40 -295l132 749h122l-132 -749h-122zM231 787l132 749h122l-132 -749h-122z" />
<glyph unicode="&#xa7;" horiz-adv-x="1040" d="M70 -135l66 88q44 -67 143.5 -110.5t211.5 -43.5q84 0 155.5 25t125 81.5t67.5 138.5q5 30 5 49q0 37 -13.5 65.5t-32.5 45.5t-55.5 32t-64.5 22.5t-77 18.5l-12 3t-11 2.5t-12 2.5q-51 11 -85 20t-74.5 23.5t-66.5 32.5t-49 43t-34 59t-11 77q0 25 7 69q31 176 229 266 q-67 30 -104.5 77t-37.5 123q0 29 6 63q14 80 60.5 144t113 102.5t143.5 58.5t159 20q93 0 178 -25t144 -71l-63 -85q-110 82 -273 82q-129 0 -228 -61t-119 -175q-4 -21 -4 -43q0 -33 12 -59t29 -42t48.5 -30t56.5 -21t67 -17q163 -35 219 -57q127 -50 155 -153 q9 -33 9 -72q0 -38 -7 -77q-29 -166 -205 -258q118 -64 118 -198q0 -41 -6 -73q-19 -108 -95 -184t-174 -109.5t-207 -33.5q-127 0 -240.5 44.5t-166.5 119.5zM362 557q0 -40 15 -68.5t48 -47t63 -28.5t83 -22q136 -26 164 -35q91 29 149 96t58 170q0 21 -4.5 39.5 t-10.5 32.5t-19.5 26.5t-23.5 21t-30.5 17.5t-33.5 14t-39.5 12t-40.5 10t-45.5 10t-45.5 10l-52 10q-101 -25 -168 -94t-67 -174z" />
<glyph unicode="&#xa8;" horiz-adv-x="661" d="M322 1296q0 24 19 45t51 21q30 0 46 -17.5t16 -41.5t-19 -45t-51 -21q-30 0 -46 17t-16 42zM666 1296q0 24 19 45t51 21q30 0 46 -17.5t16 -41.5t-19 -45t-51 -21q-30 0 -46 17t-16 42z" />
<glyph unicode="&#xa9;" horiz-adv-x="1515" d="M207 582q0 73 13 144q26 148 101.5 282.5t181 232t237.5 155.5t267 58q161 0 288 -79t196.5 -216t69.5 -307q0 -72 -13 -143q-26 -148 -101.5 -282.5t-181 -232.5t-237.5 -156t-267 -58q-161 0 -288 79t-196.5 216t-69.5 307zM300 583q0 -223 130.5 -370.5t331.5 -147.5 q155 0 304 88.5t254.5 241t136.5 331.5q11 59 11 127q0 223 -130 370.5t-331 147.5q-154 0 -303 -88.5t-255 -241.5t-137 -332q-12 -65 -12 -126zM538 628q0 46 9 97q30 172 141 283t271 111q125 0 203 -73l-63 -63q-48 65 -138 65q-123 0 -211.5 -92.5t-115.5 -246.5 q-8 -43 -8 -91q0 -108 53 -170t151 -62q93 0 172 73l46 -77q-95 -68 -217 -68q-141 0 -217 86.5t-76 227.5z" />
<glyph unicode="&#xaa;" horiz-adv-x="759" d="M261 906q0 25 4 46q20 110 106 166t196 56q116 0 199 -54l13 74q4 26 4 36q0 70 -49 108.5t-119 38.5q-110 0 -211 -64l-17 62q118 71 244 71q101 0 172.5 -58t71.5 -158q0 -20 -5 -48l-79 -452h-87l14 80q-95 -88 -217 -97q-8 -1 -23 -1q-92 0 -154.5 52t-62.5 142z M352 908q0 -61 41 -93t105 -31q3 0 8.5 0.5t8.5 0.5q122 8 212 112l29 160q-66 55 -172 55q-86 0 -150 -42t-79 -129q-3 -17 -3 -33z" />
<glyph unicode="&#xab;" horiz-adv-x="1024" d="M198 600l473 487l66 -69l-406 -418l258 -417l-84 -69zM572 600l473 487l66 -69l-406 -418l259 -417l-85 -69z" />
<glyph unicode="&#xac;" horiz-adv-x="1679" />
<glyph unicode="&#xad;" horiz-adv-x="860" d="M209 660l17 99h675l-17 -99h-675z" />
<glyph unicode="&#xae;" horiz-adv-x="1515" d="M207 582q0 73 13 144q26 148 101.5 282.5t181 232t237.5 155.5t267 58q161 0 288 -79t196.5 -216t69.5 -307q0 -72 -13 -143q-26 -148 -101.5 -282.5t-181 -232.5t-237.5 -156t-267 -58q-161 0 -288 79t-196.5 216t-69.5 307zM300 583q0 -223 130.5 -370.5t331.5 -147.5 q155 0 304 88.5t254.5 241t136.5 331.5q11 59 11 126q0 223 -130 371t-331 148q-154 0 -303 -88.5t-255 -241.5t-137 -332q-12 -65 -12 -126zM572 344l132 751h275q87 0 135 -52t48 -137q0 -18 -6 -56q-15 -86 -65 -144t-129 -76l132 -286h-84l-116 271h-193l-48 -271h-81z M713 684h190q68 0 113.5 46t60.5 130q5 28 5 49q0 59 -30 91t-87 32h-191z" />
<glyph unicode="&#xaf;" horiz-adv-x="735" d="M336 1385l14 77h550l-13 -77h-551z" />
<glyph unicode="&#xb0;" horiz-adv-x="743" d="M324 1287q0 137 100 245t229 108q105 0 171 -73t66 -181q0 -137 -100 -244.5t-229 -107.5q-105 0 -171 72.5t-66 180.5zM409 1281q0 -76 42.5 -125t107.5 -49q93 0 169.5 85t76.5 201q0 76 -42.5 125t-107.5 49q-93 0 -169.5 -85t-76.5 -201z" />
<glyph unicode="&#xb1;" horiz-adv-x="917" d="M87 -33l17 99h733l-17 -99h-733zM224 747l17 98h316l63 355h101l-63 -355h316l-17 -98h-316l-63 -356h-101l63 356h-316z" />
<glyph unicode="&#xb2;" horiz-adv-x="704" d="M228 718l30 172q18 103 83.5 154t173.5 64q46 6 71 10.5t55.5 14.5t46.5 24t30 37.5t20 57.5q4 24 4 33q0 50 -35 69t-106 19q-83 0 -129 -28t-57 -100h-94q20 113 91.5 157t190.5 44q228 0 228 -157q0 -19 -5 -49q-19 -107 -81.5 -148t-179.5 -51q-94 -7 -145.5 -39.5 t-66.5 -108.5l-18 -100h409l-13 -75h-503z" />
<glyph unicode="&#xb3;" horiz-adv-x="712" d="M255 870q0 18 3 41h88q-4 -28 -4 -37q0 -54 36.5 -74.5t110.5 -20.5q88 0 134.5 30.5t60.5 112.5q3 21 3 38q0 54 -36.5 74.5t-110.5 20.5h-97l12 68h95q78 0 122 27.5t57 102.5q3 19 3 34q0 50 -33 69t-101 19q-79 0 -123.5 -26t-57.5 -95h-84q34 192 270 192 q221 0 221 -155q0 -25 -4 -46q-20 -114 -128 -160q88 -35 88 -133q0 -20 -5 -50q-13 -76 -58 -121.5t-100 -60.5t-130 -15q-232 0 -232 165z" />
<glyph unicode="&#xb4;" horiz-adv-x="532" d="M306 1219l342 274l47 -70l-342 -275z" />
<glyph unicode="&#xb6;" horiz-adv-x="1363" d="M252 851q0 53 11 119q37 209 171 336.5t333 127.5h758l-18 -99h-176l-320 -1814h-122l320 1814h-266l-320 -1814h-122l171 970h-87q-161 7 -247 103t-86 257z" />
<glyph unicode="&#xb7;" horiz-adv-x="317" d="M202 617q0 24 19 44.5t51 20.5q30 0 46 -17t16 -41t-19 -44.5t-51 -20.5q-30 0 -46 17t-16 41z" />
<glyph unicode="&#xb8;" horiz-adv-x="567" d="M21 -406l60 44q24 -58 99 -58q59 0 100 34.5t52 98.5q3 15 3 29q0 43 -26 65.5t-71 24.5q-36 -3 -65 -14l-34 26l117 170h84l-104 -139q22 4 36 4q68 0 110.5 -39.5t42.5 -107.5q0 -100 -69 -162t-168 -62q-60 0 -105 23t-62 63z" />
<glyph unicode="&#xb9;" horiz-adv-x="401" d="M324 1316l15 78l160 39h64l-127 -721h-96l112 636z" />
<glyph unicode="&#xba;" horiz-adv-x="851" d="M283 999q0 40 8 88q27 156 130 257.5t253 101.5q132 0 203.5 -78t71.5 -208q0 -49 -8 -90q-28 -159 -129.5 -258.5t-253.5 -99.5q-133 0 -204 79t-71 208zM376 991q0 -96 47 -150.5t134 -54.5q111 0 189 81t102 220q8 46 8 82q0 96 -47 149t-134 53q-110 0 -188.5 -82 t-102.5 -219q-8 -45 -8 -79z" />
<glyph unicode="&#xbb;" horiz-adv-x="1024" d="M125 183l405 417l-258 418l84 69l307 -487l-473 -486zM499 183l406 417l-259 418l85 69l306 -487l-473 -486z" />
<glyph unicode="&#xbc;" horiz-adv-x="1232" d="M111 -35l1066 1503h122l-1066 -1503h-122zM337 1316l14 78l161 39h63l-127 -721h-95l112 636zM632 160l11 67l459 495h88l-86 -489h77l-13 -73h-77l-28 -160h-88l29 160h-372zM748 233h269l65 366z" />
<glyph unicode="&#xbd;" horiz-adv-x="1382" d="M111 -35l1066 1503h122l-1066 -1503h-122zM337 1316l14 78l161 39h63l-127 -721h-95l112 636zM784 0l30 173q18 102 83 152t174 65q44 5 71 10t56.5 15.5t46.5 25.5t30.5 40t19.5 60q2 12 2 31q0 49 -33.5 66t-103.5 17q-85 0 -132.5 -30.5t-59.5 -105.5l-91 8 q20 113 91.5 157t190.5 44q228 0 228 -157q0 -19 -5 -49q-19 -107 -81.5 -148.5t-179.5 -50.5q-96 -6 -147.5 -39.5t-65.5 -112.5l-17 -96h410l-14 -75h-503z" />
<glyph unicode="&#xbe;" horiz-adv-x="1429" d="M250 870q0 11 4 41h87q-3 -21 -3 -37q0 -54 36 -75t110 -21q88 0 134.5 30.5t60.5 113.5q4 28 4 38q0 54 -36.5 74.5t-110.5 20.5h-98l12 68h95q79 0 123 27.5t57 102.5q3 19 3 34q0 50 -33 69t-101 19q-80 0 -124.5 -26t-57.5 -95h-84q34 192 271 192q221 0 221 -155 q0 -19 -5 -46q-11 -61 -42 -99t-85 -61q88 -35 88 -133q0 -20 -5 -50q-13 -76 -58 -121.5t-100.5 -60.5t-130.5 -15q-232 0 -232 165zM307 -35l1067 1503h121l-1066 -1503h-122zM828 160l11 67l460 495h88l-86 -489h76l-13 -73h-76l-28 -160h-88l28 160h-372zM944 233h269 l66 366z" />
<glyph unicode="&#xbf;" horiz-adv-x="1130" d="M88 -66q0 42 9 91q9 51 23 95t29 77t37 62t40.5 48.5t46 37t47 27.5t50 21t48 16t48.5 13q41 9 65 16t57.5 23.5t53 37.5t37.5 57t27 84l27 153h122l-36 -203q-10 -58 -32.5 -102t-46.5 -69.5t-65 -45.5t-69.5 -29t-79.5 -22q-11 -3 -16 -4q-34 -8 -55 -14t-51.5 -18 t-50.5 -26t-44 -37.5t-40 -52.5t-30.5 -71t-23.5 -94q-7 -36 -7 -70q0 -56 20.5 -94t62.5 -58.5t94.5 -28.5t127.5 -8q86 0 151 12.5t118.5 41.5t87.5 81.5t49 128.5h122q-19 -105 -66 -178t-119 -112t-154.5 -55.5t-188.5 -16.5q-76 0 -137 8t-116 28t-92 51.5t-58.5 82 t-21.5 116.5zM770 1045q0 26 22 48.5t52 22.5q28 0 46.5 -19t18.5 -45t-22 -48t-52 -22q-29 0 -47 18.5t-18 44.5z" />
<glyph unicode="&#xc0;" horiz-adv-x="1339" d="M86 0l772 1434h127l266 -1434h-124l-72 396h-629l-212 -396h-128zM477 498h563l-143 782zM813 1833l67 70l251 -275l-67 -70z" />
<glyph unicode="&#xc1;" horiz-adv-x="1339" d="M86 0l772 1434h127l266 -1434h-124l-72 396h-629l-212 -396h-128zM477 498h563l-143 782zM784 1628l342 275l47 -70l-342 -275z" />
<glyph unicode="&#xc2;" horiz-adv-x="1339" d="M86 0l772 1434h127l266 -1434h-124l-72 396h-629l-212 -396h-128zM477 498h563l-143 782zM675 1615l329 310l224 -310l-71 -70l-172 242l-258 -242z" />
<glyph unicode="&#xc3;" horiz-adv-x="1339" d="M86 0l772 1434h127l266 -1434h-124l-72 396h-629l-212 -396h-128zM477 498h563l-143 782zM721 1714q71 124 156 124q51 0 114 -52q59 -41 93 -41q45 0 88 79l65 -53q-59 -108 -140 -108q-48 0 -119 52q-56 40 -88 40q-50 0 -105 -96z" />
<glyph unicode="&#xc4;" horiz-adv-x="1339" d="M86 0l772 1434h127l266 -1434h-124l-72 396h-629l-212 -396h-128zM477 498h563l-143 782zM731 1706q0 24 18.5 44.5t50.5 20.5q30 0 46.5 -17t16.5 -41q0 -25 -18.5 -45.5t-51.5 -20.5q-30 0 -46 17t-16 42zM1075 1706q0 24 19 44.5t51 20.5q30 0 46 -17t16 -41t-19 -45 t-51 -21q-30 0 -46 17t-16 42z" />
<glyph unicode="&#xc5;" horiz-adv-x="1339" d="M86 0l772 1434h127l266 -1434h-124l-72 396h-629l-212 -396h-128zM477 498h563l-143 782zM770 1718q0 97 72 174t166 77q78 0 126.5 -53.5t48.5 -132.5q0 -97 -72 -174t-166 -77q-78 0 -126.5 53.5t-48.5 132.5zM848 1710q0 -50 26.5 -81t67.5 -31q61 0 112 57t51 136 q0 50 -27 81t-68 31q-61 0 -111.5 -57t-50.5 -136z" />
<glyph unicode="&#xc6;" horiz-adv-x="1548" d="M86 0l772 1434h851l-18 -103h-673l-95 -541h617l-19 -102h-616l-103 -586h672l-18 -102h-794l70 396h-306l-212 -396h-128zM477 498h273l134 758z" />
<glyph unicode="&#xc7;" horiz-adv-x="1267" d="M255 541q0 86 17 185q37 211 138 375t261 260.5t356 96.5q215 0 352 -122l-88 -79q-98 98 -268 98q-241 0 -411.5 -177.5t-221.5 -468.5q-16 -87 -16 -170q0 -213 106.5 -335.5t303.5 -122.5q174 0 313 104l66 -92q-166 -113 -374 -116q-49 -2 -108 9l-91 -111h38 q70 -2 110.5 -39t40.5 -104q0 -101 -69 -162.5t-168 -61.5q-60 0 -104.5 23t-61.5 63l59 44q24 -58 99 -58q59 0 100.5 34.5t52.5 98.5q3 15 3 29q0 43 -26 65.5t-71 24.5q-36 -3 -65 -14l-34 26l114 157q-171 47 -262 189.5t-91 350.5z" />
<glyph unicode="&#xc8;" d="M200 0l253 1434h794l-18 -103h-673l-95 -541h616l-18 -102h-616l-103 -586h672l-18 -102h-794zM713 1833l67 70l251 -275l-67 -70z" />
<glyph unicode="&#xc9;" d="M200 0l253 1434h794l-18 -103h-673l-95 -541h616l-18 -102h-616l-103 -586h672l-18 -102h-794zM684 1628l342 275l47 -70l-342 -275z" />
<glyph unicode="&#xca;" d="M200 0l253 1434h794l-18 -103h-673l-95 -541h617l-19 -102h-616l-103 -586h672l-18 -102h-794zM575 1615l329 310l224 -310l-71 -70l-173 242l-258 -242z" />
<glyph unicode="&#xcb;" d="M200 0l253 1434h794l-18 -103h-673l-95 -541h616l-18 -102h-616l-103 -586h672l-18 -102h-794zM630 1706q0 24 19 44.5t51 20.5q30 0 46 -17t16 -41t-19 -45t-51 -21q-30 0 -46 17t-16 42zM974 1706q0 24 19 44.5t51 20.5q30 0 46 -17t16 -41t-19 -45t-51 -21 q-30 0 -46 17t-16 42z" />
<glyph unicode="&#xcc;" horiz-adv-x="522" d="M200 0l253 1434h121l-252 -1434h-122zM406 1833l67 70l250 -275l-67 -70z" />
<glyph unicode="&#xcd;" horiz-adv-x="522" d="M200 0l253 1434h121l-252 -1434h-122zM377 1628l342 275l46 -70l-342 -275z" />
<glyph unicode="&#xce;" horiz-adv-x="522" d="M200 0l253 1434h121l-252 -1434h-122zM267 1615l329 310l225 -310l-71 -70l-173 242l-258 -242z" />
<glyph unicode="&#xcf;" horiz-adv-x="522" d="M200 0l253 1434h121l-252 -1434h-122zM323 1706q0 24 19 44.5t51 20.5q30 0 46 -17t16 -41t-19 -45t-51 -21q-30 0 -46 17t-16 42zM667 1706q0 24 19 44.5t51 20.5q30 0 46 -17t16 -41t-19 -45t-51 -21q-30 0 -46 17t-16 42z" />
<glyph unicode="&#xd0;" horiz-adv-x="1386" d="M136 654l17 99h182l120 681h401q253 0 390.5 -146.5t137.5 -398.5q0 -83 -17 -180q-57 -324 -257.5 -516.5t-499.5 -192.5h-408l116 654h-182zM342 103h279q244 0 410.5 166t217.5 457q15 88 15 165q0 208 -108 324t-311 116h-287l-102 -578h341l-17 -99h-341z" />
<glyph unicode="&#xd1;" horiz-adv-x="1359" d="M182 0l253 1434h131l528 -1212l215 1212h121l-253 -1434h-131l-528 1210l-214 -1210h-122zM734 1714q71 124 156 124q51 0 114 -52q59 -41 93 -41q45 0 88 79l65 -53q-59 -108 -139 -108q-49 0 -120 52q-56 40 -87 40q-50 0 -105 -96z" />
<glyph unicode="&#xd2;" horiz-adv-x="1556" d="M255 542q0 85 17 184q37 211 138 375t261 260.5t356 96.5q254 0 391 -154.5t137 -410.5q0 -85 -17 -184q-38 -213 -138.5 -377.5t-261.5 -260.5t-358 -96q-250 0 -387.5 155t-137.5 412zM374 540q0 -214 107.5 -337.5t302.5 -123.5q244 0 413.5 176.5t221.5 470.5 q16 87 16 170q0 213 -107 336t-305 123q-241 0 -411.5 -177.5t-221.5 -468.5q-16 -87 -16 -169zM925 1833l67 70l251 -275l-67 -70z" />
<glyph unicode="&#xd3;" horiz-adv-x="1556" d="M255 542q0 85 17 184q37 211 138 375t261 260.5t356 96.5q254 0 391 -154.5t137 -410.5q0 -85 -17 -184q-38 -213 -138.5 -377.5t-261.5 -260.5t-358 -96q-250 0 -387.5 155t-137.5 412zM374 540q0 -214 107.5 -337.5t302.5 -123.5q244 0 413.5 176.5t221.5 470.5 q16 87 16 170q0 213 -107 336t-305 123q-241 0 -411.5 -177.5t-221.5 -468.5q-16 -87 -16 -169zM896 1628l342 275l47 -70l-342 -275z" />
<glyph unicode="&#xd4;" horiz-adv-x="1556" d="M255 542q0 85 17 184q37 211 138 375t261 260.5t356 96.5q254 0 391 -154.5t137 -410.5q0 -85 -17 -184q-38 -213 -138.5 -377.5t-261.5 -260.5t-358 -96q-250 0 -387.5 155t-137.5 412zM374 540q0 -214 107.5 -337.5t302.5 -123.5q244 0 413.5 176.5t221.5 470.5 q16 87 16 170q0 213 -107 336t-305 123q-241 0 -411.5 -177.5t-221.5 -468.5q-16 -87 -16 -169zM787 1615l329 310l224 -310l-71 -70l-173 242l-258 -242z" />
<glyph unicode="&#xd5;" horiz-adv-x="1556" d="M255 542q0 85 17 184q37 211 138 375t261 260.5t356 96.5q254 0 391 -154.5t137 -410.5q0 -85 -17 -184q-38 -213 -138.5 -377.5t-261.5 -260.5t-358 -96q-250 0 -387.5 155t-137.5 412zM374 540q0 -214 107.5 -337.5t302.5 -123.5q244 0 413.5 176.5t221.5 470.5 q16 87 16 170q0 213 -107 336t-305 123q-241 0 -411.5 -177.5t-221.5 -468.5q-16 -87 -16 -169zM833 1714q71 124 155 124q52 0 115 -52q59 -41 92 -41q45 0 88 79l65 -53q-59 -108 -139 -108q-48 0 -119 52q-56 40 -88 40q-50 0 -105 -96z" />
<glyph unicode="&#xd6;" horiz-adv-x="1556" d="M255 542q0 85 17 184q37 211 138 375t261 260.5t356 96.5q254 0 391 -154.5t137 -410.5q0 -85 -17 -184q-38 -213 -138.5 -377.5t-261.5 -260.5t-358 -96q-250 0 -387.5 155t-137.5 412zM374 540q0 -214 107.5 -337.5t302.5 -123.5q244 0 413.5 176.5t221.5 470.5 q16 87 16 170q0 213 -107 336t-305 123q-241 0 -411.5 -177.5t-221.5 -468.5q-16 -87 -16 -169zM842 1706q0 24 19 44.5t51 20.5q30 0 46 -17t16 -41t-19 -45t-51 -21q-30 0 -46 17t-16 42zM1186 1706q0 24 19 44.5t51 20.5q30 0 46.5 -17t16.5 -41t-19 -45t-51 -21 q-30 0 -46.5 17t-16.5 42z" />
<glyph unicode="&#xd7;" horiz-adv-x="763" d="M153 342l268 257l-178 257l77 76l178 -257l269 257l56 -76l-269 -257l178 -257l-77 -76l-178 257l-269 -257z" />
<glyph unicode="&#xd8;" horiz-adv-x="1556" d="M255 542q0 85 17 184q37 211 138 375t261 260.5t356 96.5q114 0 211 -35l63 113h120l-89 -160q109 -71 166 -195.5t57 -287.5q0 -85 -17 -184q-38 -213 -138.5 -377.5t-261.5 -260.5t-358 -96q-115 0 -208 35l-63 -112h-121l89 159q-109 71 -165.5 196.5t-56.5 288.5z M374 540q0 -264 158 -384l653 1172q-75 27 -162 27q-241 0 -411.5 -177.5t-221.5 -468.5q-16 -87 -16 -169zM625 105q72 -26 159 -26q244 0 413.5 176.5t221.5 470.5q16 87 16 170q0 263 -157 382z" />
<glyph unicode="&#xd9;" horiz-adv-x="1392" d="M283 369q0 100 23 232l147 833h121l-148 -842q-23 -133 -23 -224q0 -155 72 -223t237 -68q111 0 191.5 30t137.5 95.5t93 161.5t61 237l147 833h121l-148 -842q-27 -156 -70 -266t-113.5 -192t-175 -121.5t-248.5 -39.5q-226 0 -325.5 98.5t-99.5 297.5zM843 1833l67 70 l251 -275l-67 -70z" />
<glyph unicode="&#xda;" horiz-adv-x="1392" d="M283 369q0 100 23 232l147 833h121l-148 -842q-24 -139 -24 -224q0 -155 72.5 -223t237.5 -68q111 0 191.5 30t137.5 95.5t93 161.5t61 237l147 833h121l-148 -842q-27 -156 -70 -266t-113.5 -192t-175 -121.5t-248.5 -39.5q-226 0 -325.5 98.5t-99.5 297.5zM814 1628 l342 275l47 -70l-342 -275z" />
<glyph unicode="&#xdb;" horiz-adv-x="1392" d="M283 369q0 100 23 232l147 833h121l-148 -842q-23 -133 -23 -224q0 -155 72 -223t237 -68q111 0 191.5 30t137.5 95.5t93 161.5t61 237l147 833h121l-148 -842q-27 -156 -70 -266t-113.5 -192t-175 -121.5t-248.5 -39.5q-226 0 -325.5 98.5t-99.5 297.5zM705 1615 l329 310l224 -310l-71 -70l-173 242l-258 -242z" />
<glyph unicode="&#xdc;" horiz-adv-x="1392" d="M283 369q0 100 23 232l147 833h121l-148 -842q-23 -133 -23 -224q0 -155 72 -223t237 -68q111 0 191.5 30t137.5 95.5t93 161.5t61 237l147 833h121l-148 -842q-27 -156 -70 -266t-113.5 -192t-175 -121.5t-248.5 -39.5q-226 0 -325.5 98.5t-99.5 297.5zM760 1706 q0 24 19 44.5t51 20.5q30 0 46 -17t16 -41q0 -25 -18.5 -45.5t-51.5 -20.5q-30 0 -46 17t-16 42zM1104 1706q0 24 19 44.5t51 20.5q30 0 46.5 -17t16.5 -41t-19 -45t-51 -21q-30 0 -46.5 17t-16.5 42z" />
<glyph unicode="&#xdd;" horiz-adv-x="1265" d="M341 1434h134l278 -737l540 737h139l-636 -861l-103 -573h-121l102 573zM749 1628l342 275l47 -70l-342 -275z" />
<glyph unicode="&#xde;" horiz-adv-x="1284" d="M200 0l253 1434h121l-42 -238h397q170 0 262 -98.5t92 -265.5q0 -52 -11 -116q-38 -211 -170.5 -338t-332.5 -127h-403l-44 -251h-122zM384 352h389q148 0 248 99.5t131 274.5q10 58 10 99q0 127 -66.5 198.5t-190.5 71.5h-390z" />
<glyph unicode="&#xdf;" horiz-adv-x="1284" d="M200 1l193 1094q16 85 49 149t76.5 104.5t101 65.5t117.5 35t133 10q83 0 146 -13t114.5 -44t79 -87.5t27.5 -136.5q0 -50 -10 -104q-24 -134 -84 -210t-159 -114q117 -23 180 -89t63 -190q0 -50 -10 -106q-17 -94 -54 -163t-86 -110t-118 -65.5t-137 -32.5t-156 -8h-218 l19 104h213q72 0 125.5 7t105 26t87 52.5t62.5 87.5t40 129q8 43 8 88q0 119 -75.5 163.5t-228.5 46.5h-43l19 102h19q126 7 203 71t104 218q9 48 9 87q0 107 -62.5 146.5t-187.5 39.5q-149 0 -236 -60t-117 -214l-190 -1079h-122z" />
<glyph unicode="&#xe0;" horiz-adv-x="1138" d="M199 371q0 69 14 151q44 249 171 389t326 140q88 0 155.5 -36.5t156.5 -138.5l31 148h108l-180 -1024h-108l24 135q-146 -160 -345 -160q-170 0 -261.5 105.5t-91.5 290.5zM315 374q0 -143 67 -223.5t199 -80.5q187 0 326 190l95 514q-85 113 -141 147.5t-131 34.5 q-165 0 -265 -117.5t-138 -333.5q-12 -71 -12 -131zM617 1423l67 70l251 -274l-68 -71z" />
<glyph unicode="&#xe1;" horiz-adv-x="1138" d="M199 371q0 69 14 151q44 249 171 389t326 140q88 0 155.5 -36.5t156.5 -138.5l31 148h108l-180 -1024h-108l24 135q-146 -160 -345 -160q-170 0 -261.5 105.5t-91.5 290.5zM315 374q0 -143 67 -223.5t199 -80.5q187 0 326 190l95 514q-85 113 -141 147.5t-131 34.5 q-165 0 -265 -117.5t-138 -333.5q-12 -71 -12 -131zM588 1219l342 274l47 -70l-343 -275z" />
<glyph unicode="&#xe2;" horiz-adv-x="1138" d="M199 371q0 69 14 151q44 249 171 389t326 140q88 0 155.5 -36.5t156.5 -138.5l31 148h108l-180 -1024h-108l24 135q-146 -160 -345 -160q-170 0 -261.5 105.5t-91.5 290.5zM315 374q0 -143 67 -223.5t199 -80.5q187 0 326 190l95 514q-85 113 -141 147.5t-131 34.5 q-165 0 -265 -117.5t-138 -333.5q-12 -71 -12 -131zM479 1205l329 311l224 -311l-71 -70l-173 242l-258 -242z" />
<glyph unicode="&#xe3;" horiz-adv-x="1138" d="M199 371q0 70 14 152q44 249 171 388.5t326 139.5q88 0 155.5 -36.5t156.5 -138.5l31 148h108l-180 -1024h-108l24 135q-146 -160 -345 -160q-170 0 -261.5 105.5t-91.5 290.5zM315 374q0 -143 67 -223.5t199 -80.5q187 0 326 190l95 514q-85 113 -141 147.5t-131 34.5 q-165 0 -265 -117.5t-138 -333.5q-12 -71 -12 -131zM524 1304q71 124 156 124q52 0 114 -51q60 -42 93 -42q44 0 88 80l65 -54q-59 -107 -139 -107q-49 0 -119 51q-56 40 -88 40q-50 0 -105 -95z" />
<glyph unicode="&#xe4;" horiz-adv-x="1138" d="M199 371q0 69 14 151q44 249 171 389t326 140q88 0 155.5 -36.5t156.5 -138.5l31 148h108l-180 -1024h-108l24 135q-146 -160 -345 -160q-170 0 -261.5 105.5t-91.5 290.5zM315 374q0 -143 67 -223.5t199 -80.5q187 0 326 190l95 514q-85 113 -141 147.5t-131 34.5 q-165 0 -265 -117.5t-138 -333.5q-12 -71 -12 -131zM534 1296q0 24 19 45t51 21q30 0 46 -17.5t16 -41.5t-19 -45t-51 -21q-30 0 -46 17t-16 42zM878 1296q0 24 19 45t51 21q30 0 46 -17.5t16 -41.5t-19 -45t-51 -21q-30 0 -46 17t-16 42z" />
<glyph unicode="&#xe5;" horiz-adv-x="1138" d="M199 371q0 69 14 151q44 249 171 389t326 140q88 0 155.5 -36.5t156.5 -138.5l31 148h108l-180 -1024h-108l24 135q-146 -160 -345 -160q-170 0 -261.5 105.5t-91.5 290.5zM315 374q0 -143 67 -223.5t199 -80.5q187 0 326 190l95 514q-85 113 -141 147.5t-131 34.5 q-165 0 -265 -117.5t-138 -333.5q-12 -71 -12 -131zM573 1308q0 97 72 174t166 77q78 0 127 -53t49 -132q0 -97 -72 -174t-166 -77q-78 0 -127 53t-49 132zM651 1300q0 -50 27 -80.5t68 -30.5q61 0 112 57t51 136q0 50 -27 80.5t-68 30.5q-61 0 -112 -57t-51 -136z" />
<glyph unicode="&#xe6;" horiz-adv-x="1888" d="M199 371q0 69 14 151q44 249 171 389t326 140q88 0 155.5 -36.5t156.5 -138.5l31 148h108l-41 -234q67 123 173 193t242 70q233 0 327 -132q51 -68 51 -164q0 -51 -13 -104q-64 -257 -486 -257q-116 0 -319 27q-2 -32 -2 -45q0 -149 75 -230.5t213 -81.5q158 0 308 90 l40 -75q-158 -106 -359 -106q-143 0 -231.5 72.5t-113.5 200.5l-44 -248h-108l24 135q-146 -160 -345 -160q-170 0 -261.5 105.5t-91.5 290.5zM315 374q0 -143 67 -223.5t199 -80.5q187 0 327 190l94 514q-85 113 -141 147.5t-131 34.5q-165 0 -265 -117.5t-138 -333.5 q-12 -71 -12 -131zM1104 499q143 -31 284 -31q351 0 402 207q12 48 12 87q0 103 -73 153.5t-197 50.5q-161 0 -272 -115.5t-145 -299.5z" />
<glyph unicode="&#xe7;" horiz-adv-x="964" d="M201 392q0 68 11 129q20 111 68 207t119 168t167.5 113.5t206.5 41.5q82 0 148.5 -22.5t102.5 -55.5l-75 -73q-48 56 -172 56q-169 0 -292 -126t-158 -326q-10 -57 -10 -113q0 -150 77 -236.5t212 -86.5q52 0 110 17t101 50l56 -85q-99 -65 -252 -77q-47 0 -92 7 l-87 -105q26 5 37 2q69 0 110.5 -38t41.5 -106q0 -101 -69.5 -163t-168.5 -62q-60 0 -104.5 23t-61.5 63l60 44q24 -58 99 -58q59 0 100 34.5t52 98.5q3 15 3 29q0 43 -26 65.5t-71 24.5q-36 -3 -65 -14l-34 26l110 150q-122 39 -188 144t-66 254z" />
<glyph unicode="&#xe8;" d="M201 389q0 65 12 135q41 232 185 380.5t359 148.5q114 0 198.5 -34.5t129.5 -97.5q50 -67 50 -164q0 -51 -13 -104q-64 -257 -485 -257q-117 0 -320 27q-1 -16 -1 -45q0 -149 75 -230.5t213 -81.5q157 0 307 90l41 -75q-158 -106 -359 -106q-189 0 -290.5 113t-101.5 301 zM326 498q136 -30 283 -30q352 0 403 207q12 48 12 87q0 103 -73 153.5t-197 50.5q-161 0 -270.5 -114.5t-145.5 -299.5zM630 1423l67 70l251 -274l-67 -71z" />
<glyph unicode="&#xe9;" d="M201 389q0 65 12 135q41 232 185 380.5t359 148.5q114 0 198.5 -34.5t129.5 -97.5q50 -67 50 -164q0 -51 -13 -104q-64 -257 -485 -257q-117 0 -320 27q-1 -16 -1 -45q0 -149 75 -230.5t213 -81.5q157 0 307 90l41 -75q-158 -106 -359 -106q-189 0 -290.5 113t-101.5 301 zM326 498q136 -30 283 -30q352 0 403 207q12 48 12 87q0 103 -73 153.5t-197 50.5q-161 0 -270.5 -114.5t-145.5 -299.5zM601 1219l342 274l47 -70l-342 -275z" />
<glyph unicode="&#xea;" d="M201 389q0 65 12 135q41 232 185 380.5t359 148.5q114 0 198.5 -34.5t129.5 -97.5q50 -67 50 -164q0 -51 -13 -104q-64 -257 -485 -257q-117 0 -320 27q-1 -16 -1 -45q0 -149 75 -230.5t213 -81.5q157 0 307 90l41 -75q-158 -106 -359 -106q-189 0 -290.5 113t-101.5 301 zM326 498q136 -30 283 -30q352 0 403 207q12 48 12 87q0 103 -73 153.5t-197 50.5q-161 0 -270.5 -114.5t-145.5 -299.5zM492 1205l329 311l224 -311l-71 -70l-172 242l-259 -242z" />
<glyph unicode="&#xeb;" d="M201 389q0 65 12 135q41 232 185 380.5t359 148.5q114 0 198.5 -34.5t129.5 -97.5q50 -67 50 -164q0 -51 -13 -104q-64 -257 -485 -257q-117 0 -320 27q-1 -16 -1 -45q0 -149 75 -230.5t213 -81.5q157 0 307 90l41 -75q-158 -106 -359 -106q-189 0 -290.5 113t-101.5 301 zM326 498q136 -30 283 -30q352 0 403 207q12 48 12 87q0 103 -73 153.5t-197 50.5q-161 0 -270.5 -114.5t-145.5 -299.5zM547 1296q0 24 19 45t51 21q30 0 46.5 -17.5t16.5 -41.5t-19 -45t-51 -21q-30 0 -46.5 17t-16.5 42zM892 1296q0 25 18.5 45.5t50.5 20.5 q30 0 46.5 -17.5t16.5 -41.5t-19 -45t-51 -21q-30 0 -46 17t-16 42z" />
<glyph unicode="&#xec;" horiz-adv-x="468" d="M185 0l180 1024h118l-181 -1024h-117zM317 1423l68 70l250 -274l-67 -71z" />
<glyph unicode="&#xed;" horiz-adv-x="468" d="M185 0l180 1024h118l-181 -1024h-117zM288 1219l342 274l47 -70l-342 -275z" />
<glyph unicode="&#xee;" horiz-adv-x="468" d="M179 1205l329 311l225 -311l-71 -70l-173 242l-259 -242zM185 0l180 1024h118l-181 -1024h-117z" />
<glyph unicode="&#xef;" horiz-adv-x="468" d="M185 0l180 1024h118l-181 -1024h-117zM235 1296q0 24 19 45t51 21q30 0 46 -17.5t16 -41.5t-19 -45t-51 -21q-30 0 -46 17t-16 42zM579 1296q0 24 19 45t51 21q30 0 46 -17.5t16 -41.5t-19 -45t-51 -21q-30 0 -46 17t-16 42z" />
<glyph unicode="&#xf0;" horiz-adv-x="1136" d="M172 337q0 71 14 149q20 113 58.5 198t88 138t115.5 85.5t135 45t153 12.5q75 0 127.5 -8.5t99.5 -32t77.5 -68.5t46.5 -114l17 81q34 180 34 292q0 85 -18 142l-216 -134l-32 80l220 133q-56 124 -246 124q-168 0 -312 -108l-37 90q85 62 169.5 89t188.5 27 q257 0 341 -161l148 90l32 -80l-145 -90q22 -79 22 -185q0 -139 -42 -378q-18 -100 -37 -180t-46.5 -162t-61 -143.5t-80 -116.5t-103 -90t-130 -55.5t-161.5 -20.5q-96 0 -168.5 16.5t-131 54.5t-89.5 108.5t-31 171.5zM286 337q0 -144 77.5 -198.5t231.5 -54.5 q100 0 177 34t131.5 101.5t91.5 154.5t66 206q-5 76 -21.5 128t-40 83.5t-64 48.5t-82.5 22.5t-105 5.5q-91 0 -159.5 -17.5t-128.5 -60.5t-100.5 -123.5t-61.5 -199.5q-12 -65 -12 -130z" />
<glyph unicode="&#xf1;" horiz-adv-x="1165" d="M175 0l180 1024h107l-25 -143q110 91 190 131t173 40q136 0 234 -82t98 -227q0 -44 -6 -75l-118 -668h-118l116 655q6 36 6 67q0 113 -69 173.5t-169 60.5q-83 0 -154 -40t-189 -143l-139 -773h-117zM574 1304q71 124 156 124q52 0 114 -51q60 -42 93 -42q44 0 88 80 l65 -54q-59 -107 -140 -107q-49 0 -119 51q-56 40 -88 40q-50 0 -105 -95z" />
<glyph unicode="&#xf2;" horiz-adv-x="1189" d="M200 389q0 62 12 131q20 113 68 209.5t118.5 168.5t167 112.5t207.5 40.5q191 0 293.5 -111.5t102.5 -301.5q0 -64 -12 -135q-42 -237 -190 -383.5t-370 -146.5q-192 0 -294.5 114t-102.5 302zM316 386q0 -148 74 -233t209 -85q170 0 288.5 122.5t154.5 329.5 q12 65 12 122q0 148 -74.5 231t-209.5 83q-167 0 -287 -124t-156 -328q-11 -66 -11 -118zM668 1423l67 70l251 -274l-67 -71z" />
<glyph unicode="&#xf3;" horiz-adv-x="1189" d="M200 389q0 62 12 131q20 113 68 209.5t118.5 168.5t167 112.5t207.5 40.5q191 0 293.5 -111.5t102.5 -301.5q0 -64 -12 -135q-42 -237 -190 -383.5t-370 -146.5q-192 0 -294.5 114t-102.5 302zM316 386q0 -148 74 -233t209 -85q170 0 288.5 122.5t154.5 329.5 q12 65 12 122q0 148 -74.5 231t-209.5 83q-167 0 -287 -124t-156 -328q-11 -66 -11 -118zM639 1219l342 274l47 -70l-342 -275z" />
<glyph unicode="&#xf4;" horiz-adv-x="1189" d="M200 389q0 62 12 131q20 113 68 209.5t118.5 168.5t167 112.5t207.5 40.5q190 0 293 -111.5t103 -301.5q0 -64 -12 -135q-42 -237 -190 -383.5t-370 -146.5q-192 0 -294.5 114t-102.5 302zM316 386q0 -148 74 -233t209 -85q170 0 288.5 122.5t154.5 329.5q12 65 12 122 q0 148 -74.5 231t-209.5 83q-167 0 -287 -124.5t-156 -328.5q-11 -66 -11 -117zM530 1205l329 311l225 -311l-71 -70l-173 242l-258 -242z" />
<glyph unicode="&#xf5;" horiz-adv-x="1189" d="M200 389q0 63 12 132q27 152 101 270.5t193.5 189t266.5 70.5q190 0 293 -111.5t103 -301.5q0 -64 -12 -134q-42 -237 -190 -384t-370 -147q-192 0 -294.5 114t-102.5 302zM316 386q0 -148 74 -233t209 -85q170 0 288.5 122.5t154.5 330.5q12 65 12 121q0 148 -74.5 231 t-209.5 83q-167 0 -287 -124t-156 -328q-11 -66 -11 -118zM576 1304q71 124 156 124q52 0 114 -51q60 -42 93 -42q44 0 88 80l65 -54q-59 -107 -140 -107q-49 0 -119 51q-56 40 -88 40q-50 0 -105 -95z" />
<glyph unicode="&#xf6;" horiz-adv-x="1189" d="M200 389q0 62 12 131q20 113 68 209.5t118.5 168.5t167 112.5t207.5 40.5q190 0 293 -111.5t103 -301.5q0 -64 -12 -135q-42 -237 -190 -383.5t-370 -146.5q-192 0 -294.5 114t-102.5 302zM316 386q0 -148 74 -233t209 -85q170 0 288.5 122.5t154.5 329.5q12 65 12 122 q0 148 -74.5 231t-209.5 83q-167 0 -287 -124.5t-156 -328.5q-11 -66 -11 -117zM586 1296q0 25 18.5 45.5t50.5 20.5q30 0 46.5 -17.5t16.5 -41.5t-19 -45t-51 -21q-30 0 -46 17t-16 42zM930 1296q0 24 19 45t51 21q30 0 46 -17.5t16 -41.5t-19 -45t-51 -21q-30 0 -46 17 t-16 42z" />
<glyph unicode="&#xf7;" horiz-adv-x="917" d="M206 645l17 98h733l-17 -98h-733zM457 358q0 25 18.5 45.5t50.5 20.5q30 0 46.5 -17t16.5 -41t-19 -45t-51 -21q-30 0 -46 17t-16 41zM574 1023q0 24 19 44.5t51 20.5q30 0 46 -17t16 -41t-19 -44.5t-51 -20.5q-30 0 -46 17t-16 41z" />
<glyph unicode="&#xf8;" horiz-adv-x="1189" d="M200 389q0 62 12 131q20 113 68 209.5t118.5 168.5t167 112.5t207.5 40.5q86 0 155 -24l55 99h87l-73 -131q84 -51 128 -143t44 -214q0 -64 -12 -134q-42 -237 -190 -384t-370 -147q-86 0 -156 25l-55 -100h-87l74 132q-85 52 -129 145t-44 214zM316 386q0 -181 108 -264 l455 817q-49 17 -109 17q-167 0 -287 -124t-156 -328q-11 -66 -11 -118zM491 86q52 -18 108 -18q170 0 288.5 122.5t154.5 329.5q12 65 12 122q0 181 -108 261z" />
<glyph unicode="&#xf9;" horiz-adv-x="1146" d="M212 281q0 39 7 75l118 668h118l-116 -655q-6 -36 -6 -67q0 -113 69 -173.5t169 -60.5q83 0 154 40t189 143l139 773h117l-180 -1024h-107l25 142q-110 -91 -190 -131t-173 -40q-136 0 -234.5 82.5t-98.5 227.5zM650 1423l68 70l250 -274l-67 -71z" />
<glyph unicode="&#xfa;" horiz-adv-x="1146" d="M212 281q0 39 7 75l118 668h118l-116 -655q-6 -36 -6 -67q0 -113 69 -173.5t169 -60.5q83 0 154 40t189 143l139 773h117l-180 -1024h-107l25 142q-110 -91 -190 -131t-173 -40q-136 0 -234.5 82.5t-98.5 227.5zM621 1219l342 274l47 -70l-342 -275z" />
<glyph unicode="&#xfb;" horiz-adv-x="1146" d="M212 281q0 39 7 75l118 668h118l-116 -655q-6 -36 -6 -67q0 -113 69 -173.5t169 -60.5q83 0 154 40t189 143l139 773h117l-180 -1024h-107l25 142q-110 -91 -190 -131t-173 -40q-136 0 -234.5 82.5t-98.5 227.5zM513 1205l328 311l225 -311l-71 -70l-173 242l-258 -242z " />
<glyph unicode="&#xfc;" horiz-adv-x="1146" d="M212 281q0 39 7 75l118 668h118l-116 -655q-6 -36 -6 -67q0 -113 69 -173.5t169 -60.5q83 0 154 40t189 143l139 773h117l-180 -1024h-107l25 142q-110 -91 -190 -131t-173 -40q-136 0 -234.5 82.5t-98.5 227.5zM568 1296q0 24 19 45t51 21q30 0 46 -17.5t16 -41.5 q0 -25 -18.5 -45.5t-51.5 -20.5q-30 0 -46 17t-16 42zM912 1296q0 24 19 45t51 21q30 0 46 -17.5t16 -41.5t-19 -45t-51 -21q-30 0 -46 17t-16 42z" />
<glyph unicode="&#xfd;" horiz-adv-x="1001" d="M-8 -508l10 90q126 0 224 66q98 59 169 192l85 160h-18l-185 1024h118l153 -883l462 883h121l-647 -1227q-81 -155 -207 -235q-120 -70 -285 -70zM543 1219l342 274l47 -70l-342 -275z" />
<glyph unicode="&#xfe;" horiz-adv-x="1173" d="M107 -487l338 1921h118l-98 -540q145 155 336 155q172 0 263 -104.5t91 -289.5q0 -77 -14 -153q-44 -249 -171 -389t-326 -140q-84 0 -151 34.5t-155 133.5l-114 -628h-117zM352 250q85 -113 141 -147.5t131 -34.5q165 0 264.5 117.5t137.5 333.5q13 76 13 131 q0 143 -67 223.5t-199 80.5q-188 0 -327 -190z" />
<glyph unicode="&#xff;" horiz-adv-x="1001" d="M-8 -508l10 90q126 0 224 66q98 59 169 192l85 160h-18l-185 1024h118l153 -883l462 883h121l-647 -1227q-81 -155 -207 -235q-120 -70 -285 -70zM489 1296q0 24 19 45t51 21q30 0 46 -17.5t16 -41.5q0 -25 -18.5 -45.5t-51.5 -20.5q-30 0 -46 17t-16 42zM833 1296 q0 24 19 45t51 21q30 0 46 -17.5t16 -41.5q0 -25 -18.5 -45.5t-51.5 -20.5q-30 0 -46 17t-16 42z" />
<glyph unicode="&#x152;" horiz-adv-x="2201" d="M255 542q0 85 17 184q37 211 138 375t261 260.5t356 96.5q193 0 309 -104t141 -282l67 362h794l-18 -103h-672l-96 -541h617l-18 -102h-617l-103 -586h673l-18 -102h-796l67 356q-87 -178 -237 -279.5t-340 -101.5q-250 0 -387.5 155t-137.5 412zM374 540 q0 -214 107.5 -337.5t302.5 -123.5q244 0 413.5 176.5t221.5 470.5q16 87 16 170q0 213 -107 336t-305 123q-241 0 -411.5 -177.5t-221.5 -468.5q-16 -87 -16 -169z" />
<glyph unicode="&#x153;" horiz-adv-x="1943" d="M200 389q0 62 12 131q20 113 68 209.5t118.5 168.5t167 112.5t207.5 40.5q158 0 251 -85t110 -234q66 149 183.5 235t272.5 86q233 0 327 -132q51 -68 51 -164q0 -51 -13 -104q-64 -257 -486 -257q-117 0 -319 27q-2 -32 -2 -45q0 -149 75 -230.5t213 -81.5q158 0 308 90 l40 -75q-158 -106 -359 -106q-157 0 -249.5 85.5t-108.5 234.5q-68 -151 -189 -236.5t-281 -85.5q-192 0 -294.5 114t-102.5 302zM316 386q0 -148 74 -233t209 -85q170 0 288.5 122.5t154.5 329.5q12 65 12 122q0 148 -74.5 231t-209.5 83q-167 0 -287 -124.5t-156 -328.5 q-11 -66 -11 -117zM1159 499q143 -31 284 -31q351 0 402 207q11 44 11 87q0 103 -72.5 153.5t-196.5 50.5q-164 0 -275 -118t-145 -305z" />
<glyph unicode="&#x178;" horiz-adv-x="1265" d="M341 1434h134l278 -737l540 737h139l-636 -861l-103 -573h-121l102 573zM695 1706q0 24 19 44.5t51 20.5q30 0 46 -17t16 -41t-19 -45t-51 -21q-30 0 -46 17t-16 42zM1039 1706q0 24 19 44.5t51 20.5q30 0 46.5 -17t16.5 -41t-19 -45t-51 -21q-30 0 -46.5 17t-16.5 42z " />
<glyph unicode="&#x2c6;" horiz-adv-x="737" d="M305 1205l329 311l224 -311l-71 -70l-173 242l-258 -242z" />
<glyph unicode="&#x2dc;" horiz-adv-x="688" d="M321 1304q71 124 156 124q52 0 114 -51q60 -42 93 -42q44 0 88 80l65 -54q-59 -107 -140 -107q-49 0 -119 51q-56 40 -88 40q-50 0 -105 -95z" />
<glyph unicode="&#x2000;" horiz-adv-x="984" />
<glyph unicode="&#x2001;" horiz-adv-x="1969" />
<glyph unicode="&#x2002;" horiz-adv-x="984" />
<glyph unicode="&#x2003;" horiz-adv-x="1969" />
<glyph unicode="&#x2004;" horiz-adv-x="656" />
<glyph unicode="&#x2005;" horiz-adv-x="492" />
<glyph unicode="&#x2006;" horiz-adv-x="328" />
<glyph unicode="&#x2007;" horiz-adv-x="328" />
<glyph unicode="&#x2008;" horiz-adv-x="246" />
<glyph unicode="&#x2009;" horiz-adv-x="393" />
<glyph unicode="&#x200a;" horiz-adv-x="109" />
<glyph unicode="&#x2010;" horiz-adv-x="860" d="M209 660l17 99h675l-17 -99h-675z" />
<glyph unicode="&#x2011;" horiz-adv-x="860" d="M209 660l17 99h675l-17 -99h-675z" />
<glyph unicode="&#x2012;" horiz-adv-x="860" d="M209 660l17 99h675l-17 -99h-675z" />
<glyph unicode="&#x2013;" horiz-adv-x="980" d="M209 660l17 99h797l-18 -99h-796z" />
<glyph unicode="&#x2014;" horiz-adv-x="1212" d="M209 660l17 99h1027l-17 -99h-1027z" />
<glyph unicode="&#x2018;" horiz-adv-x="327" d="M344 1406q0 26 4 47q10 59 35 90t79 31h29l-16 -53h-12q-32 0 -46 -69l-1 -6h5q28 0 43.5 -16.5t15.5 -41.5q0 -24 -19 -45t-52 -21q-41 0 -54 32q-11 19 -11 52z" />
<glyph unicode="&#x2019;" horiz-adv-x="327" d="M348 1322l16 53h12q32 0 46 69l1 6l-5 -1q-28 0 -43.5 17t-15.5 42q0 24 19 45t51 21q37 0 52 -28q14 -23 14 -57q0 -19 -5 -46q-10 -59 -34.5 -90t-78.5 -31h-29z" />
<glyph unicode="&#x201a;" horiz-adv-x="327" d="M90 -141l16 53h12q32 0 46 70l1 6h-5q-28 0 -43.5 17t-15.5 41t19 44.5t51 20.5q36 0 51 -26q15 -22 15 -59q0 -19 -5 -46q-10 -59 -34.5 -90t-78.5 -31h-29z" />
<glyph unicode="&#x201c;" horiz-adv-x="569" d="M344 1406q0 26 4 47q10 59 35 90t79 31h29l-16 -53h-12q-32 0 -46 -67l-1 -8h5q28 0 43.5 -16.5t15.5 -41.5q0 -24 -19 -45t-52 -21q-39 0 -54 32q-11 19 -11 52zM584 1407q0 19 5 46q10 59 34.5 90t78.5 31h29l-16 -53h-12q-32 0 -46 -69l-1 -6h5q28 0 43.5 -16.5 t15.5 -41.5q0 -24 -19 -45t-51 -21q-42 0 -56 35q-10 20 -10 50z" />
<glyph unicode="&#x201d;" horiz-adv-x="569" d="M348 1322l16 53h12q32 0 46 69l1 6l-5 -1q-28 0 -43.5 17t-15.5 42q0 24 19 45t51 21q35 0 51 -26q15 -20 15 -59q0 -19 -5 -46q-10 -59 -34.5 -90t-78.5 -31h-29zM588 1322l17 53h12q32 0 46 70l1 5l-6 -1q-28 0 -43 17t-15 42t18.5 45.5t51.5 20.5q34 0 50 -25 q15 -20 15 -60q0 -25 -4 -46q-10 -59 -35 -90t-79 -31h-29z" />
<glyph unicode="&#x201e;" horiz-adv-x="569" d="M90 -141l16 53h12q32 0 46 70l1 6h-5q-28 0 -43.5 17t-15.5 41t19 44.5t51 20.5q37 0 52 -27q14 -21 14 -58q0 -19 -5 -46q-10 -59 -34.5 -90t-78.5 -31h-29zM331 -141l16 53h12q33 0 45 68l1 8h-5q-28 0 -43 17t-15 41t19 44.5t51 20.5q33 0 48 -22q17 -21 17 -63 q0 -25 -4 -46q-10 -59 -34.5 -90t-78.5 -31h-29z" />
<glyph unicode="&#x2022;" horiz-adv-x="552" d="M197 577q0 88 64 158t151 70q72 0 115 -48t43 -119q0 -88 -63.5 -158t-150.5 -70q-72 0 -115.5 48t-43.5 119z" />
<glyph unicode="&#x2026;" horiz-adv-x="985" d="M102 49q0 24 19 45t51 21q30 0 46 -17t16 -41q0 -25 -18.5 -46t-51.5 -21q-30 0 -46 17t-16 42zM436 49q0 24 19 45t51 21q30 0 46 -17t16 -41q0 -25 -19 -46t-51 -21q-30 0 -46 17t-16 42zM770 49q0 24 19 45t51 21q30 0 46.5 -17t16.5 -41q0 -25 -19 -46t-51 -21 q-30 0 -46.5 17t-16.5 42z" />
<glyph unicode="&#x202f;" horiz-adv-x="393" />
<glyph unicode="&#x2039;" horiz-adv-x="649" d="M198 600l473 487l66 -69l-406 -418l258 -417l-84 -69z" />
<glyph unicode="&#x203a;" horiz-adv-x="649" d="M125 183l405 417l-258 418l84 69l307 -487l-473 -486z" />
<glyph unicode="&#x205f;" horiz-adv-x="492" />
<glyph unicode="&#x20ac;" horiz-adv-x="1193" d="M182 511l16 92h107q12 94 17 119l11 58h-103l16 91h113q27 108 61.5 193t86 161t117.5 126t156.5 79t200.5 29q246 0 353 -138l-72 -72q-91 111 -280 111q-108 0 -191.5 -34t-141.5 -101t-96 -152.5t-66 -201.5h599l-16 -91h-612l-12 -63q-12 -66 -17 -115h540l-16 -92 h-531q-3 -42 -3 -80q0 -174 72.5 -263.5t245.5 -89.5q194 0 331 114l56 -83q-147 -133 -391 -133q-121 0 -207 32.5t-135.5 94.5t-71.5 141.5t-22 184.5q0 41 3 83h-118z" />
<glyph unicode="&#x2122;" horiz-adv-x="1607" d="M326 1356l14 78h603l-14 -78h-253l-129 -728h-95l128 728h-254zM910 628l142 806h105l134 -665l371 665h107l-142 -806h-96l110 621l-337 -620h-70l-118 620l-110 -621h-96z" />
<glyph unicode="&#x25fc;" horiz-adv-x="1024" d="M0 0v1024h1024v-1024h-1024z" />
<glyph unicode="&#xfb03;" horiz-adv-x="1867" d="M174 -334l223 1267h-163l16 92h163q47 268 206 396q147 118 367 109l-10 -88q-170 0 -287 -105q-121 -103 -158 -312h578q48 271 207 396q147 117 365 109l-9 -88q-170 0 -287 -105q-122 -103 -160 -313h645l-180 -1024h-118l165 933h-527l-223 -1267h-118l223 1267h-577 l-224 -1267h-117z" />
<glyph unicode="&#xfb04;" horiz-adv-x="2033" d="M174 -334l223 1267h-163l16 92h163q47 266 205 394q149 120 368 111l-10 -88q-169 1 -287 -106q-121 -103 -158 -311h578q44 251 188 383q135 122 321 125h337l-195 -1107q-13 -76 -13 -129q0 -81 28 -133q50 -85 193 -84l-11 -90q-189 -9 -271 110q-55 79 -55 207 q0 59 12 127l178 1008h-178q-155 -1 -268 -111q-114 -107 -149 -307h295l-16 -91h-295l-223 -1267h-118l223 1267h-577l-224 -1267h-117z" />
</font>
</defs>
</svg>
